# xmcd CD database file
#
# Track frame offsets:
#	150
#	17105
#	31180
#	50310
#	63735
#	79880
#	89117
#	107897
#	131392
#	150632
#	164730
#	179017
#	193652
#	211097
#
# Disc length: 2904 seconds
#
# Revision: 0
# Processed by: cddbd v1.4PL0 Copyright (c) Steve Scherf et al.
# Submitted via: CDex 1.40Release
#
DISCID=c50b560e
DTITLE=Noel Watson - Spirit of Australia
DYEAR=1900
DGENRE=Country
TTITLE0=Toms Woman
TTITLE1=Daniel Morgan
TTITLE2=Darlinghurst Road
TTITLE3=The FX Holden
TTITLE4=Care for Me
TTITLE5=Old Heroes like me
TTITLE6=Spirit of Australia
TTITLE7=Waltzing Matilda
TTITLE8=Nowhere Town
TTITLE9=Old Bluey
TTITLE10=Southern Lights
TTITLE11=Smokey
TTITLE12=My Country
TTITLE13=Song Without Words
EXTD=ID3G: 2
EXTT0=
EXTT1=
EXTT2=
EXTT3=
EXTT4=
EXTT5=
EXTT6=
EXTT7=
EXTT8=
EXTT9=
EXTT10=
EXTT11=
EXTT12=
EXTT13=
PLAYORDER=
